<svg width="320" height="72" viewBox="0 0 320 72" fill="none" xmlns="http://www.w3.org/2000/svg">
  <rect width="320" height="72" rx="20" fill="#070B10"/>
  <rect x="12" y="12" width="48" height="48" rx="14" fill="url(#paint0_linear_1_2)"/>
  <path d="M37.7334 24H44.6667V40.4C44.6667 47.3333 40.9334 51.0667 34.1334 51.0667C30.8 51.0667 27.8667 50.2667 25.3334 48.6667L28.1334 43.4667C29.8667 44.5333 31.6667 45.0667 33.5334 45.0667C36.3334 45.0667 37.7334 43.4 37.7334 40.0667V24Z" fill="white"/>
  <path d="M84 27.2H95.0667V46.8H90L89.6 43.8667C87.0667 46.2667 83.7334 47.4667 79.6 47.4667C75.0667 47.4667 71.2667 45.8667 68.2 42.6667C65.1334 39.4 63.6 35.3333 63.6 30.4667C63.6 25.7333 65.1334 21.8 68.2 18.6667C71.3334 15.5333 75.2 13.9667 79.8 13.9667C82.7334 13.9667 85.4 14.5667 87.8 15.7667C90.2 16.9667 92.1334 18.6 93.6 20.6667L88.4 24.5333C86.2667 21.8 83.4 20.4333 79.8 20.4333C76.9334 20.4333 74.5334 21.4 72.6 23.3333C70.7334 25.2667 69.8 27.6444 69.8 30.4667C69.8 33.4222 70.7334 35.8889 72.6 37.8667C74.5334 39.8444 77 40.8333 80 40.8333C84 40.8333 86.8667 39.5111 88.6 36.8667H84V27.2Z" fill="white"/>
  <path d="M110.389 20.6667V47H103.789V14.4H108.922L124.989 35.1333V14.4H131.589V47H126.456L110.389 26.2667V20.6667Z" fill="white"/>
  <path d="M149.315 47V14.4H155.915V40.6667H172.382V47H149.315Z" fill="white"/>
  <path d="M176.516 47L190.983 14.4H197.583L212.05 47H204.983L202.316 40.4667H186.183L183.516 47H176.516ZM188.716 34.2667H199.783L194.25 20.6667L188.716 34.2667Z" fill="white"/>
  <path d="M236.435 23.8667C236.435 25.5556 236.057 27.0222 235.302 28.2667C234.613 29.4444 233.635 30.4222 232.369 31.2C234.435 31.9778 236.013 33.1111 237.102 34.6C238.257 36.0222 238.835 37.8222 238.835 40C238.835 42.9778 237.724 45.3333 235.502 47.0667C233.346 48.8 230.413 49.6667 226.702 49.6667C222.391 49.6667 218.835 48.3111 216.035 45.6L219.969 40.7333C222.124 42.6889 224.524 43.6667 227.169 43.6667C228.724 43.6667 229.946 43.3556 230.835 42.7333C231.724 42.0444 232.169 41.1111 232.169 39.9333C232.169 38.7556 231.68 37.8667 230.702 37.2667C229.724 36.6667 228.124 36.3667 225.902 36.3667H222.302V30.7667H225.435C229.391 30.7667 231.369 29.5111 231.369 27C231.369 24.8222 229.724 23.7333 226.435 23.7333C224.257 23.7333 222.257 24.4889 220.435 26L216.902 21.4C219.924 18.7556 223.391 17.4333 227.302 17.4333C230.724 17.4333 233.435 18.2 235.435 19.7333C237.435 21.2667 238.435 23.3111 238.435 25.8667V23.8667Z" fill="white"/>
  <text x="251" y="32" fill="#96A0AF" font-family="Geist, system-ui, sans-serif" font-size="10" font-weight="700" letter-spacing="0.32em">JPG LABS</text>
  <text x="251" y="49" fill="#4B5563" font-family="Geist, system-ui, sans-serif" font-size="9" font-weight="600" letter-spacing="0.2em">PORTFOLIO ACCESS</text>
  <defs>
    <linearGradient id="paint0_linear_1_2" x1="12" y1="12" x2="60" y2="60" gradientUnits="userSpaceOnUse">
      <stop stop-color="#2563EB"/>
      <stop offset="1" stop-color="#1D4ED8"/>
    </linearGradient>
  </defs>
</svg>
